<?xml version="1.0" encoding="UTF-8"?>
<svg version="1.1" xmlns="http://www.w3.org/2000/svg" width="282" height="282">
<path d="M0 0 C7.54512281 -0.45960139 14.63662682 -0.62271953 21 4 C21.70441955 5.31377902 22.3772536 6.64559639 23 8 C24.85744207 8.61067144 24.85744207 8.61067144 27 9 C29.75 10.375 29.75 10.375 32 12 C32 12.99 32 13.98 32 15 C32.99 15.33 33.98 15.66 35 16 C35.33333333 17.33333333 35.66666667 18.66666667 36 20 C37.485 20.495 37.485 20.495 39 21 C40.4477922 23.89558441 41 25.74188938 41 29 C44.15760781 30.86386572 46.35749152 31.20131511 50 31.0625 C53.25942853 30.94822126 55.85413039 31.19010591 59 32 C59.78375 31.835 60.5675 31.67 61.375 31.5 C64.49646103 30.90543599 66.91154522 31.35357923 70 32 C70.33 32.99 70.66 33.98 71 35 C72.98 34.01 72.98 34.01 75 33 C75 33.66 75 34.32 75 35 C75.721875 34.525625 76.44375 34.05125 77.1875 33.5625 C79.89475226 32.05847097 81.96194275 31.43400818 85 31 C85 30.34 85 29.68 85 29 C85.66 29 86.32 29 87 29 C87 28.34 87 27.68 87 27 C87.639375 26.896875 88.27875 26.79375 88.9375 26.6875 C89.618125 26.460625 90.29875 26.23375 91 26 C91.33 25.01 91.66 24.02 92 23 C93.31647119 22.30062468 94.65022151 21.63270867 96 21 C96.33 20.34 96.66 19.68 97 19 C98.66321482 18.64984951 100.33034549 18.31802943 102 18 C102.99 17.34 103.98 16.68 105 16 C107 16 107 16 108.625 17.5 C109.07875 17.995 109.5325 18.49 110 19 C110.66 18.34 111.32 17.68 112 17 C112.55429688 17.28875 113.10859375 17.5775 113.6796875 17.875 C114.76636719 18.431875 114.76636719 18.431875 115.875 19 C116.95394531 19.556875 116.95394531 19.556875 118.0546875 20.125 C119.94848977 21.13673746 119.94848977 21.13673746 122 21 C126 26.41176471 126 26.41176471 126 29 C126.66 29 127.32 29 128 29 C128 29.66 128 30.32 128 31 C128.66 31 129.32 31 130 31 C130 33.64 130 36.28 130 39 C130.99 38.34 131.98 37.68 133 37 C139.98608816 34.12013328 147.51665334 31.89530875 155 34 C155 33.34 155 32.68 155 32 C161.18184294 31.08792481 164.35624932 31.08081862 170 34 C170 34.66 170 35.32 170 36 C170.66 36 171.32 36 172 36 C174 42.75 174 42.75 174 45 C174.33 45.66 174.66 46.32 175 47 C174.66666667 49.33333333 174.33333333 51.66666667 174 54 C173.91421937 57.00232216 173.93872135 59.99734621 174 63 C173.34 63 172.68 63 172 63 C172 65.64 172 68.28 172 71 C173.134375 71.4125 174.26875 71.825 175.4375 72.25 C179 74 179 74 179.75 76.125 C179.8325 76.74375 179.915 77.3625 180 78 C180.99 78.33 181.98 78.66 183 79 C183 80.32 183 81.64 183 83 C183.66 83 184.32 83 185 83 C185.027193 84.58323688 185.04648306 86.16661062 185.0625 87.75 C185.07410156 88.63171875 185.08570313 89.5134375 185.09765625 90.421875 C184.96585928 93.90131509 184.0975856 96.70724319 183 100 C182.01 100 181.02 100 180 100 C180.12375 100.845625 180.2475 101.69125 180.375 102.5625 C179.76287076 108.17368472 175.84935267 111.15064733 172 115 C171.54188325 116.97235333 171.54188325 116.97235333 171.375 119.125 C171.189375 121.043125 171.189375 121.043125 171 123 C171.66 123.33 172.32 123.66 173 124 C172.34 124 171.68 124 171 124 C171 127.3 171 130.6 171 134 C172.65 134 174.3 134 176 134 C181.3406489 135.18681087 185.38734876 137.17592781 190 140 C190 142.64 190 145.28 190 148 C185.6747634 149.44174553 181.97494523 149.98747261 177.765625 147.8828125 C175.79478262 146.64579441 173.88156131 145.36840823 172 144 C168.77595022 145.66954819 168.77595022 145.66954819 168.3125 148.625 C168.1578125 149.800625 168.1578125 149.800625 168 151 C167.34 151 166.68 151 166 151 C166.34444881 153.47266765 166.34444881 153.47266765 167 156 C167.66 156.33 168.32 156.66 169 157 C169 157.66 169 158.32 169 159 C169.66 159 170.32 159 171 159 C171 160.65 171 162.3 171 164 C171.66 164.33 172.32 164.66 173 165 C172.34 166.65 171.68 168.3 171 170 C170.34 170 169.68 170 169 170 C169 170.66 169 171.32 169 172 C166.69 171.67 164.38 171.34 162 171 C162 170.01 162 169.02 162 168 C157.60685207 169.01160848 157.60685207 169.01160848 154.625 172.125 C154.41875 172.74375 154.2125 173.3625 154 174 C154.680625 174.37125 155.36125 174.7425 156.0625 175.125 C161.38845925 178.52454846 166.24540623 182.1667426 169 188 C169 190 169 190 167.4375 191.625 C164.06680993 193.52641491 161.81180865 193.47647608 158 193 C155.75 191.1875 155.75 191.1875 154 189 C153.4225 188.46375 152.845 187.9275 152.25 187.375 C151 186 151 186 151 184 C148.69 183.67 146.38 183.34 144 183 C144 183.99 144 184.98 144 186 C142.68 186.33 141.36 186.66 140 187 C140 187.66 140 188.32 140 189 C134.375 192 134.375 192 131 192 C131 192.66 131 193.32 131 194 C126.47838972 195.62188195 121.96261478 196.68756464 117.25 197.5625 C112.4921119 198.34885872 112.4921119 198.34885872 108 200 C107.34 199.67 106.68 199.34 106 199 C106 199.66 106 200.32 106 201 C105.01 201 104.02 201 103 201 C103 200.34 103 199.68 103 199 C101.35 199.33 99.7 199.66 98 200 C98 200.66 98 201.32 98 202 C97.0925 201.835 96.185 201.67 95.25 201.5 C91.51809223 200.92586034 88.76791375 200.72269781 85.1875 202.015625 C81.52032655 203.14813445 78.81313355 203.06776113 75 202.75 C73.824375 202.66234375 72.64875 202.5746875 71.4375 202.484375 C68.0647949 202.00913019 65.19919037 201.14194534 62 200 C60.38121576 199.59901675 58.75640888 199.22105643 57.125 198.875 C55.95324219 198.62363281 55.95324219 198.62363281 54.7578125 198.3671875 C54.17773438 198.24601563 53.59765625 198.12484375 53 198 C52.67 198.66 52.34 199.32 52 200 C51.443125 199.67 50.88625 199.34 50.3125 199 C47.69715478 197.8690399 45.8193354 197.84337026 43 198 C43 197.34 43 196.68 43 196 C40.03 196 37.06 196 34 196 C34 195.34 34 194.68 34 194 C32.94941406 193.89042969 31.89882812 193.78085938 30.81640625 193.66796875 C23.18207033 192.8227387 16.20115637 191.82902572 9 189 C9 188.34 9 187.68 9 187 C8.01 187.33 7.02 187.66 6 188 C3.3125 187.0625 3.3125 187.0625 1 186 C1 185.34 1 184.68 1 184 C-0.98 183.67 -2.96 183.34 -5 183 C-5 182.34 -5 181.68 -5 181 C-6.65 181 -8.3 181 -10 181 C-10.33 180.01 -10.66 179.02 -11 178 C-11.70511719 178.06960937 -12.41023438 178.13921875 -13.13671875 178.2109375 C-16.80860053 177.94043052 -18.74944153 176.63423514 -21.8125 174.625 C-22.78832031 173.99851563 -23.76414063 173.37203125 -24.76953125 172.7265625 C-25.87361328 171.87191406 -25.87361328 171.87191406 -27 171 C-27 170.34 -27 169.68 -27 169 C-28.65 168.67 -30.3 168.34 -32 168 C-32 167.34 -32 166.68 -32 166 C-33.65 165.67 -35.3 165.34 -37 165 C-36.67 163.68 -36.34 162.36 -36 161 C-36.99 161.33 -37.98 161.66 -39 162 C-39.99 161.67 -40.98 161.34 -42 161 C-42.99 161 -43.98 161 -45 161 C-45.33 161.66 -45.66 162.32 -46 163 C-46.66 162.67 -47.32 162.34 -48 162 C-48 161.34 -48 160.68 -48 160 C-48.99 160 -49.98 160 -51 160 C-51 159.01 -51 158.02 -51 157 C-50.34 157 -49.68 157 -49 157 C-49 156.34 -49 155.68 -49 155 C-49.66 155 -50.32 155 -51 155 C-51 154.34 -51 153.68 -51 153 C-50.34 153 -49.68 153 -49 153 C-48.67 152.01 -48.34 151.02 -48 150 C-47.34 149.67 -46.68 149.34 -46 149 C-46.495 148.608125 -46.99 148.21625 -47.5 147.8125 C-49.45593143 145.44908285 -49.24207973 143.98564997 -49 141 C-51.21674869 141.47501758 -53.03857099 142.0198699 -55.0625 143.0625 C-57 144 -57 144 -60 144 C-60 143.34 -60 142.68 -60 142 C-60.99 141.67 -61.98 141.34 -63 141 C-62.9375 138.75 -62.9375 138.75 -62 136 C-58.9301813 133.52994022 -56.00503984 132 -52 132 C-52 130.68 -52 129.36 -52 128 C-52.66 127.67 -53.32 127.34 -54 127 C-54 126.01 -54 125.02 -54 124 C-53.34 124 -52.68 124 -52 124 C-52.66 122.35 -53.32 120.7 -54 119 C-57.26109651 119.47723364 -60.28282856 120.08741974 -63.4375 121.0625 C-67.11191221 122.02945058 -70.2190629 122.15432396 -74 122 C-74.33 121.01 -74.66 120.02 -75 119 C-75.66 119 -76.32 119 -77 119 C-76.9375 116.1875 -76.9375 116.1875 -76 113 C-70.98043999 109.83549478 -66.10960842 109.57168539 -60.2578125 109.30859375 C-59.14019531 109.15583984 -59.14019531 109.15583984 -58 109 C-57.67 108.34 -57.34 107.68 -57 107 C-57 107.66 -57 108.32 -57 109 C-54.525 108.505 -54.525 108.505 -52 108 C-52.061875 106.700625 -52.12375 105.40125 -52.1875 104.0625 C-52.21187142 98.94450211 -50.87433898 94.71931779 -49 90 C-48.34 90 -47.68 90 -47 90 C-46.67 88.02 -46.34 86.04 -46 84 C-45.34 84 -44.68 84 -44 84 C-43.855625 83.0925 -43.71125 82.185 -43.5625 81.25 C-43.13590527 78.78523044 -42.64925779 76.41152893 -42 74 C-41.01 74 -40.02 74 -39 74 C-38.855625 73.401875 -38.71125 72.80375 -38.5625 72.1875 C-37.27345455 67.17454545 -37.27345455 67.17454545 -34.0625 65.125 C-30.73282494 62.81461322 -30.29192531 61.67701819 -29 58 C-28.01 57.67 -27.02 57.34 -26 57 C-24.15008886 54.21696962 -24.15008886 54.21696962 -23 51 C-23.17789063 50.40832031 -23.35578125 49.81664062 -23.5390625 49.20703125 C-24.22007997 45.94622725 -23.16628164 43.63102617 -22.125 40.5 C-20.98087452 37.01161742 -19.8608163 33.56847485 -19 30 C-18.505 28.515 -18.505 28.515 -18 27 C-17.34 27 -16.68 27 -16 27 C-15.896875 25.96875 -15.79375 24.9375 -15.6875 23.875 C-15.00413494 20.02330603 -13.85855738 17.40735519 -12 14 C-11.67 13.01 -11.34 12.02 -11 11 C-10.01 11 -9.02 11 -8 11 C-8 10.34 -8 9.68 -8 9 C-7.34 9 -6.68 9 -6 9 C-5.938125 8.21625 -5.87625 7.4325 -5.8125 6.625 C-5.544375 5.75875 -5.27625 4.8925 -5 4 C-2.4375 2.6875 -2.4375 2.6875 0 2 C0 1.34 0 0.68 0 0 Z M42 30 C43 32 43 32 43 32 Z M159 166 C160 168 160 168 160 168 Z " fill="#FBF7F7" transform="translate(92,43)"/>
<path d="M0 0 C7.54512281 -0.45960139 14.63662682 -0.62271953 21 4 C21.70441955 5.31377902 22.3772536 6.64559639 23 8 C24.85744207 8.61067144 24.85744207 8.61067144 27 9 C29.75 10.375 29.75 10.375 32 12 C32 12.99 32 13.98 32 15 C32.99 15.33 33.98 15.66 35 16 C35.33333333 17.33333333 35.66666667 18.66666667 36 20 C37.485 20.495 37.485 20.495 39 21 C40.4477922 23.89558441 41 25.74188938 41 29 C44.15760781 30.86386572 46.35749152 31.20131511 50 31.0625 C53.25942853 30.94822126 55.85413039 31.19010591 59 32 C59.78375 31.835 60.5675 31.67 61.375 31.5 C64.49646103 30.90543599 66.91154522 31.35357923 70 32 C70.33 32.99 70.66 33.98 71 35 C72.98 34.01 72.98 34.01 75 33 C75 33.66 75 34.32 75 35 C75.721875 34.525625 76.44375 34.05125 77.1875 33.5625 C79.89475226 32.05847097 81.96194275 31.43400818 85 31 C85 30.34 85 29.68 85 29 C85.66 29 86.32 29 87 29 C87 28.34 87 27.68 87 27 C87.639375 26.896875 88.27875 26.79375 88.9375 26.6875 C89.618125 26.460625 90.29875 26.23375 91 26 C91.33 25.01 91.66 24.02 92 23 C93.31647119 22.30062468 94.65022151 21.63270867 96 21 C96.33 20.34 96.66 19.68 97 19 C98.66321482 18.64984951 100.33034549 18.31802943 102 18 C102.99 17.34 103.98 16.68 105 16 C107 16 107 16 108.625 17.5 C109.07875 17.995 109.5325 18.49 110 19 C110.66 18.34 111.32 17.68 112 17 C112.55429688 17.28875 113.10859375 17.5775 113.6796875 17.875 C114.76636719 18.431875 114.76636719 18.431875 115.875 19 C116.95394531 19.556875 116.95394531 19.556875 118.0546875 20.125 C119.94848977 21.13673746 119.94848977 21.13673746 122 21 C126 26.41176471 126 26.41176471 126 29 C126.66 29 127.32 29 128 29 C128 29.66 128 30.32 128 31 C128.66 31 129.32 31 130 31 C130 33.64 130 36.28 130 39 C130.99 38.34 131.98 37.68 133 37 C139.98608816 34.12013328 147.51665334 31.89530875 155 34 C155 33.34 155 32.68 155 32 C161.18184294 31.08792481 164.35624932 31.08081862 170 34 C170 34.66 170 35.32 170 36 C170.66 36 171.32 36 172 36 C174 42.75 174 42.75 174 45 C174.33 45.66 174.66 46.32 175 47 C174.66666667 49.33333333 174.33333333 51.66666667 174 54 C173.91421937 57.00232216 173.93872135 59.99734621 174 63 C173.34 63 172.68 63 172 63 C172 65.64 172 68.28 172 71 C173.134375 71.4125 174.26875 71.825 175.4375 72.25 C179 74 179 74 179.75 76.125 C179.8325 76.74375 179.915 77.3625 180 78 C180.99 78.33 181.98 78.66 183 79 C183 80.32 183 81.64 183 83 C183.66 83 184.32 83 185 83 C185.027193 84.58323688 185.04648306 86.16661062 185.0625 87.75 C185.07410156 88.63171875 185.08570313 89.5134375 185.09765625 90.421875 C184.96585928 93.90131509 184.0975856 96.70724319 183 100 C182.01 100 181.02 100 180 100 C180.12375 100.845625 180.2475 101.69125 180.375 102.5625 C179.76287076 108.17368472 175.84935267 111.15064733 172 115 C171.54188325 116.97235333 171.54188325 116.97235333 171.375 119.125 C171.189375 121.043125 171.189375 121.043125 171 123 C171.66 123.33 172.32 123.66 173 124 C172.34 124 171.68 124 171 124 C171 127.3 171 130.6 171 134 C172.65 134 174.3 134 176 134 C181.3406489 135.18681087 185.38734876 137.17592781 190 140 C190 142.64 190 145.28 190 148 C185.6747634 149.44174553 181.97494523 149.98747261 177.765625 147.8828125 C175.79478262 146.64579441 173.88156131 145.36840823 172 144 C168.77595022 145.66954819 168.77595022 145.66954819 168.3125 148.625 C168.1578125 149.800625 168.1578125 149.800625 168 151 C167.34 151 166.68 151 166 151 C166.34444881 153.47266765 166.34444881 153.47266765 167 156 C167.66 156.33 168.32 156.66 169 157 C169 157.66 169 158.32 169 159 C169.66 159 170.32 159 171 159 C171 160.65 171 162.3 171 164 C171.66 164.33 172.32 164.66 173 165 C172.34 166.65 171.68 168.3 171 170 C170.34 170 169.68 170 169 170 C169 170.66 169 171.32 169 172 C166.69 171.67 164.38 171.34 162 171 C162 170.01 162 169.02 162 168 C157.60685207 169.01160848 157.60685207 169.01160848 154.625 172.125 C154.41875 172.74375 154.2125 173.3625 154 174 C154.680625 174.37125 155.36125 174.7425 156.0625 175.125 C161.38845925 178.52454846 166.24540623 182.1667426 169 188 C169 190 169 190 167.4375 191.625 C164.06680993 193.52641491 161.81180865 193.47647608 158 193 C155.75 191.1875 155.75 191.1875 154 189 C153.4225 188.46375 152.845 187.9275 152.25 187.375 C151 186 151 186 151 184 C148.69 183.67 146.38 183.34 144 183 C144 183.99 144 184.98 144 186 C142.68 186.33 141.36 186.66 140 187 C140 187.66 140 188.32 140 189 C134.375 192 134.375 192 131 192 C131 192.66 131 193.32 131 194 C126.47838972 195.62188195 121.96261478 196.68756464 117.25 197.5625 C112.4921119 198.34885872 112.4921119 198.34885872 108 200 C107.34 199.67 106.68 199.34 106 199 C106 199.66 106 200.32 106 201 C105.01 201 104.02 201 103 201 C103 200.34 103 199.68 103 199 C101.35 199.33 99.7 199.66 98 200 C98 200.66 98 201.32 98 202 C97.0925 201.835 96.185 201.67 95.25 201.5 C91.51809223 200.92586034 88.76791375 200.72269781 85.1875 202.015625 C81.52032655 203.14813445 78.81313355 203.06776113 75 202.75 C73.824375 202.66234375 72.64875 202.5746875 71.4375 202.484375 C68.0647949 202.00913019 65.19919037 201.14194534 62 200 C60.38121576 199.59901675 58.75640888 199.22105643 57.125 198.875 C55.95324219 198.62363281 55.95324219 198.62363281 54.7578125 198.3671875 C54.17773438 198.24601563 53.59765625 198.12484375 53 198 C52.67 198.66 52.34 199.32 52 200 C51.443125 199.67 50.88625 199.34 50.3125 199 C47.69715478 197.8690399 45.8193354 197.84337026 43 198 C43 197.34 43 196.68 43 196 C40.03 196 37.06 196 34 196 C34 195.34 34 194.68 34 194 C32.94941406 193.89042969 31.89882812 193.78085938 30.81640625 193.66796875 C23.18207033 192.8227387 16.20115637 191.82902572 9 189 C9 188.34 9 187.68 9 187 C8.01 187.33 7.02 187.66 6 188 C3.3125 187.0625 3.3125 187.0625 1 186 C1 185.34 1 184.68 1 184 C-0.98 183.67 -2.96 183.34 -5 183 C-5 182.34 -5 181.68 -5 181 C-6.65 181 -8.3 181 -10 181 C-10.33 180.01 -10.66 179.02 -11 178 C-11.70511719 178.06960937 -12.41023438 178.13921875 -13.13671875 178.2109375 C-16.80860053 177.94043052 -18.74944153 176.63423514 -21.8125 174.625 C-22.78832031 173.99851563 -23.76414063 173.37203125 -24.76953125 172.7265625 C-25.87361328 171.87191406 -25.87361328 171.87191406 -27 171 C-27 170.34 -27 169.68 -27 169 C-28.65 168.67 -30.3 168.34 -32 168 C-32 167.34 -32 166.68 -32 166 C-33.65 165.67 -35.3 165.34 -37 165 C-36.67 163.68 -36.34 162.36 -36 161 C-36.99 161.33 -37.98 161.66 -39 162 C-39.99 161.67 -40.98 161.34 -42 161 C-42.99 161 -43.98 161 -45 161 C-45.33 161.66 -45.66 162.32 -46 163 C-46.66 162.67 -47.32 162.34 -48 162 C-48 161.34 -48 160.68 -48 160 C-48.99 160 -49.98 160 -51 160 C-51 159.01 -51 158.02 -51 157 C-50.34 157 -49.68 157 -49 157 C-49 156.34 -49 155.68 -49 155 C-49.66 155 -50.32 155 -51 155 C-51 154.34 -51 153.68 -51 153 C-50.34 153 -49.68 153 -49 153 C-48.67 152.01 -48.34 151.02 -48 150 C-47.34 149.67 -46.68 149.34 -46 149 C-46.495 148.608125 -46.99 148.21625 -47.5 147.8125 C-49.45593143 145.44908285 -49.24207973 143.98564997 -49 141 C-51.21674869 141.47501758 -53.03857099 142.0198699 -55.0625 143.0625 C-57 144 -57 144 -60 144 C-60 143.34 -60 142.68 -60 142 C-60.99 141.67 -61.98 141.34 -63 141 C-62.9375 138.75 -62.9375 138.75 -62 136 C-58.9301813 133.52994022 -56.00503984 132 -52 132 C-52 130.68 -52 129.36 -52 128 C-52.66 127.67 -53.32 127.34 -54 127 C-54 126.01 -54 125.02 -54 124 C-53.34 124 -52.68 124 -52 124 C-52.66 122.35 -53.32 120.7 -54 119 C-57.26109651 119.47723364 -60.28282856 120.08741974 -63.4375 121.0625 C-67.11191221 122.02945058 -70.2190629 122.15432396 -74 122 C-74.33 121.01 -74.66 120.02 -75 119 C-75.66 119 -76.32 119 -77 119 C-76.9375 116.1875 -76.9375 116.1875 -76 113 C-70.98043999 109.83549478 -66.10960842 109.57168539 -60.2578125 109.30859375 C-59.14019531 109.15583984 -59.14019531 109.15583984 -58 109 C-57.67 108.34 -57.34 107.68 -57 107 C-57 107.66 -57 108.32 -57 109 C-54.525 108.505 -54.525 108.505 -52 108 C-52.061875 106.700625 -52.12375 105.40125 -52.1875 104.0625 C-52.21187142 98.94450211 -50.87433898 94.71931779 -49 90 C-48.34 90 -47.68 90 -47 90 C-46.67 88.02 -46.34 86.04 -46 84 C-45.34 84 -44.68 84 -44 84 C-43.855625 83.0925 -43.71125 82.185 -43.5625 81.25 C-43.13590527 78.78523044 -42.64925779 76.41152893 -42 74 C-41.01 74 -40.02 74 -39 74 C-38.855625 73.401875 -38.71125 72.80375 -38.5625 72.1875 C-37.27345455 67.17454545 -37.27345455 67.17454545 -34.0625 65.125 C-30.73282494 62.81461322 -30.29192531 61.67701819 -29 58 C-28.01 57.67 -27.02 57.34 -26 57 C-24.15008886 54.21696962 -24.15008886 54.21696962 -23 51 C-23.17789063 50.40832031 -23.35578125 49.81664062 -23.5390625 49.20703125 C-24.22007997 45.94622725 -23.16628164 43.63102617 -22.125 40.5 C-20.98087452 37.01161742 -19.8608163 33.56847485 -19 30 C-18.505 28.515 -18.505 28.515 -18 27 C-17.34 27 -16.68 27 -16 27 C-15.896875 25.96875 -15.79375 24.9375 -15.6875 23.875 C-15.00413494 20.02330603 -13.85855738 17.40735519 -12 14 C-11.67 13.01 -11.34 12.02 -11 11 C-10.01 11 -9.02 11 -8 11 C-8 10.34 -8 9.68 -8 9 C-7.34 9 -6.68 9 -6 9 C-5.938125 8.21625 -5.87625 7.4325 -5.8125 6.625 C-5.544375 5.75875 -5.27625 4.8925 -5 4 C-2.4375 2.6875 -2.4375 2.6875 0 2 C0 1.34 0 0.68 0 0 Z M3 10 C3 10.66 3 11.32 3 12 C2.01 12 1.02 12 0 12 C-0.84324672 13.578076 -1.67423918 15.1627042 -2.5 16.75 C-2.9640625 17.63171875 -3.428125 18.5134375 -3.90625 19.421875 C-5.26036656 22.14696472 -5.26036656 22.14696472 -5 26 C-5.66 26 -6.32 26 -7 26 C-7.103125 27.051875 -7.20625 28.10375 -7.3125 29.1875 C-8 33 -8 33 -9.4375 35.3125 C-11.7456323 39.28248755 -12.25851245 43.50745781 -13 48 C-12.01 48 -11.02 48 -10 48 C-10 47.34 -10 46.68 -10 46 C-4.8185816 43.31333861 -0.93942843 41.72374751 5 42 C5.33 42.99 5.66 43.98 6 45 C4.02 45 2.04 45 0 45 C0 45.66 0 46.32 0 47 C-2.33214148 48.20628008 -4.49642139 49.1654738 -7 50 C-7 50.66 -7 51.32 -7 52 C-7.598125 52.0825 -8.19625 52.165 -8.8125 52.25 C-11.62219534 53.21332412 -12.27912517 54.63379711 -14 57 C-14.66 57.309375 -15.32 57.61875 -16 57.9375 C-18.73516942 59.39055876 -19.47920201 61.33860352 -21 64 C-21.680625 64.66 -22.36125 65.32 -23.0625 66 C-25.16450109 67.914349 -25.16450109 67.914349 -26.0625 70.6875 C-26.371875 71.450625 -26.68125 72.21375 -27 73 C-28.485 73.495 -28.485 73.495 -30 74 C-32.97202012 77.62960076 -32.97202012 77.62960076 -34 82 C-34.66 82 -35.32 82 -36 82 C-38.67656853 88.11787092 -39.95505331 94.43176369 -41 101 C-41.20625 101.70125 -41.4125 102.4025 -41.625 103.125 C-42.07472018 105.3736009 -41.60752664 106.8147176 -41 109 C-40.33613281 109.03738281 -39.67226563 109.07476562 -38.98828125 109.11328125 C-29.82032165 109.79585926 -29.82032165 109.79585926 -26 113 C-25.67 113.99 -25.34 114.98 -25 116 C-25.7425 115.835 -26.485 115.67 -27.25 115.5 C-32.52507937 114.79665608 -37.6788276 114.94087586 -43 115 C-42.67 119.29 -42.34 123.58 -42 128 C-40.02 127.01 -40.02 127.01 -38 126 C-35.33646245 125.48479018 -32.70500869 125.27050087 -30 125 C-30 126.32 -30 127.64 -30 129 C-30.53625 129.103125 -31.0725 129.20625 -31.625 129.3125 C-34.62502044 130.18092697 -37.2379535 131.55620296 -40 133 C-39.67 136.3 -39.34 139.6 -39 143 C-35.14061025 144.34513424 -35.14061025 144.34513424 -32 143 C-31.2884375 142.01 -31.2884375 142.01 -30.5625 141 C-28.77195598 138.70810365 -27.81872737 138.38878998 -25 138 C-25.8125 141.4375 -25.8125 141.4375 -27 145 C-27.99 145.33 -28.98 145.66 -30 146 C-30 146.99 -30 147.98 -30 149 C-30.99 149.33 -31.98 149.66 -33 150 C-32.37189827 152.97017694 -32.37189827 152.97017694 -31 156 C-28.49552484 157.21869929 -28.49552484 157.21869929 -26 158 C-25.67 158.99 -25.34 159.98 -25 161 C-23.35 161 -21.7 161 -20 161 C-19.67 161.99 -19.34 162.98 -19 164 C-17.96875 164.061875 -16.9375 164.12375 -15.875 164.1875 C-11.96278633 165.00780287 -10.70807 165.94569344 -7.87890625 168.58984375 C-3.7738846 171.67074358 2.79306805 175 8 175 C8 175.66 8 176.32 8 177 C8.89203125 177.26554688 9.7840625 177.53109375 10.703125 177.8046875 C12.45882812 178.33449219 12.45882812 178.33449219 14.25 178.875 C15.41015625 179.22304687 16.5703125 179.57109375 17.765625 179.9296875 C20.36406756 180.78955859 22.5895867 181.74193341 25 183 C27.31939207 183.7136591 29.65523449 184.3747292 32 185 C33.175625 185.350625 34.35125 185.70125 35.5625 186.0625 C40.49348882 187.29764089 45.49782376 187.41666768 50.5546875 187.72265625 C54.26096655 188.02100751 57.74665852 188.66287987 61.37109375 189.45703125 C73.17966756 191.89594917 84.10479394 192.52938364 96 191 C97.32802779 190.84033515 98.65616246 190.68155804 99.984375 190.5234375 C101.42712242 190.34928183 102.86983053 190.17480023 104.3125 190 C105.00674072 189.9170166 105.70098145 189.8340332 106.41625977 189.74853516 C109.67840854 189.34507659 112.82431418 188.84483803 116 188 C116.66 188 117.32 188 118 188 C118 187.34 118 186.68 118 186 C119.2684375 185.8453125 119.2684375 185.8453125 120.5625 185.6875 C126.03049409 184.59390118 130.71702886 182.59769576 135 179 C134.20882096 177.00016466 134.20882096 177.00016466 133 175 C132.01 174.67 131.02 174.34 130 174 C130 173.01 130 172.02 130 171 C130.92941406 171.165 131.85882813 171.33 132.81640625 171.5 C139.93738602 172.6534492 139.93738602 172.6534492 146.5234375 170.4609375 C148.47605781 168.33297986 149.89316036 166.67294884 151 164 C150.7454588 161.2888605 150.7454588 161.2888605 150 159 C145.82262526 157.40861915 142.46839215 156.78721942 138 157 C138.33 155.02 138.66 153.04 139 151 C144.29415692 151.44706214 148.97654962 152.1621523 154 154 C154.66 154 155.32 154 156 154 C158.21534483 149.28035231 159.57823401 145.27207486 160 140 C158.78571012 138.55611429 158.78571012 138.55611429 155.18359375 138.90234375 C153.60153318 138.90901911 152.01948841 138.92098125 150.4375 138.9375 C149.63119141 138.94201172 148.82488281 138.94652344 147.99414062 138.95117188 C145.99606244 138.96299482 143.99802217 138.98093086 142 139 C141.67 138.01 141.34 137.02 141 136 C141.99 136 142.98 136 144 136 C144 135.34 144 134.68 144 134 C145.89575251 133.97278824 147.79161979 133.95350864 149.6875 133.9375 C150.74324219 133.92589844 151.79898438 133.91429687 152.88671875 133.90234375 C155.72410262 133.99134575 158.2438919 134.35060162 161 135 C161.33611568 132.89627599 161.66879946 130.79200343 162 128.6875 C162.185625 127.51574219 162.37125 126.34398437 162.5625 125.13671875 C163.06906988 122.03264069 163.06906988 122.03264069 163 119 C156.79622679 119.53456549 151.15676004 120.62050381 145.22265625 122.58984375 C142.15249129 123.1563944 139.35343921 122.84180953 136.25 122.5625 C135.07953125 122.46066406 133.9090625 122.35882813 132.703125 122.25390625 C131.36507812 122.12822266 131.36507812 122.12822266 130 122 C130 120.68 130 119.36 130 118 C128.2984375 117.443125 128.2984375 117.443125 126.5625 116.875 C124.625 116.06640625 124.625 116.06640625 123 115 C122.0625 111.8125 122.0625 111.8125 122 109 C121.01 109 120.02 109 119 109 C119.0309375 107.7934375 119.0309375 107.7934375 119.0625 106.5625 C119.29633621 104.06645115 119.29633621 104.06645115 118 103 C117.54540142 100.34536879 117.29756762 97.67810862 117 95 C115.35 94.67 113.7 94.34 112 94 C111.67 93.01 111.34 92.02 111 91 C110.360625 90.855625 109.72125 90.71125 109.0625 90.5625 C107 90 107 90 105.75 87.9375 C105.5025 87.298125 105.255 86.65875 105 86 C104.34 86 103.68 86 103 86 C103 86.99 103 87.98 103 89 C89.40415704 89.20092379 89.40415704 89.20092379 84 88 C83.67 87.34 83.34 86.68 83 86 C81.515 85.505 81.515 85.505 80 85 C79.71125 84.34 79.4225 83.68 79.125 83 C78.1446618 80.70849401 78.1446618 80.70849401 75.375 80.25 C74.59125 80.1675 73.8075 80.085 73 80 C73.103125 79.2575 73.20625 78.515 73.3125 77.75 C73.209375 76.8425 73.10625 75.935 73 75 C72.175 74.443125 71.35 73.88625 70.5 73.3125 C68 71 68 71 67.59765625 68.984375 C67.49510545 61.91976451 68.78220696 54.93707107 70 48 C71.32 48 72.64 48 74 48 C74 46.02 74 44.04 74 42 C69.65666792 39.95708886 65.34944787 39.35408508 60.625 38.875 C59.81442139 38.79008301 59.00384277 38.70516602 58.16870117 38.61767578 C47.80012033 37.64491794 37.40177218 37.81758662 27 38 C27 38.66 27 39.32 27 40 C25.35 39.67 23.7 39.34 22 39 C22 37.68 22 36.36 22 35 C27.94 33.515 27.94 33.515 34 32 C33.01 29.525 33.01 29.525 32 27 C29.95894361 26.11306697 29.95894361 26.11306697 28 26 C28 24.68 28 23.36 28 22 C27.34 22 26.68 22 26 22 C26 21.34 26 20.68 26 20 C25.01 19.67 24.02 19.34 23 19 C22.3125 16.9375 22.3125 16.9375 22 15 C21.34 15 20.68 15 20 15 C20 14.34 20 13.68 20 13 C19.01 13 18.02 13 17 13 C17 12.34 17 11.68 17 11 C12.22426677 8.38104952 8.15565119 9.16880569 3 10 Z M42 30 C43 32 43 32 43 32 Z M159 166 C160 168 160 168 160 168 Z " fill="#F27394" transform="translate(92,43)"/>
<path d="M0 0 C7.54512281 -0.45960139 14.63662682 -0.62271953 21 4 C21.70441955 5.31377902 22.3772536 6.64559639 23 8 C24.85744207 8.61067144 24.85744207 8.61067144 27 9 C29.75 10.375 29.75 10.375 32 12 C32 12.99 32 13.98 32 15 C32.99 15.33 33.98 15.66 35 16 C35.33333333 17.33333333 35.66666667 18.66666667 36 20 C37.485 20.495 37.485 20.495 39 21 C40.4477922 23.89558441 41 25.74188938 41 29 C44.15760781 30.86386572 46.35749152 31.20131511 50 31.0625 C53.25942853 30.94822126 55.85413039 31.19010591 59 32 C59.78375 31.835 60.5675 31.67 61.375 31.5 C64.49646103 30.90543599 66.91154522 31.35357923 70 32 C70.33 32.99 70.66 33.98 71 35 C72.98 34.01 72.98 34.01 75 33 C75 33.66 75 34.32 75 35 C76.65 35 78.3 35 80 35 C79.071875 36.1446875 79.071875 36.1446875 78.125 37.3125 C75.94402948 39.99625809 75.94402948 39.99625809 74 43 C73.34773437 42.69191406 72.69546875 42.38382813 72.0234375 42.06640625 C68.26271627 40.73995031 64.56817491 40.31765408 60.625 39.9375 C59.81442139 39.85516113 59.00384277 39.77282227 58.16870117 39.68798828 C47.80515155 38.70005198 37.40145892 38.34517185 27 38 C27 38.66 27 39.32 27 40 C25.35 40 23.7 40 22 40 C21.67 38.35 21.34 36.7 21 35 C22.41396902 34.49242138 23.83131729 33.99425075 25.25 33.5 C26.03890625 33.2215625 26.8278125 32.943125 27.640625 32.65625 C30 32 30 32 34 32 C31.96197865 27.93975679 31.96197865 27.93975679 28 26 C28 24.68 28 23.36 28 22 C27.34 22 26.68 22 26 22 C26 21.34 26 20.68 26 20 C24.68 19.67 23.36 19.34 22 19 C22 17.68 22 16.36 22 15 C21.34 15 20.68 15 20 15 C20 14.34 20 13.68 20 13 C19.01 13 18.02 13 17 13 C17 12.34 17 11.68 17 11 C12.32798795 9.79431947 7.78503708 9.90617574 3 10 C3 10.66 3 11.32 3 12 C2.01 12 1.02 12 0 12 C-0.4021875 13.2375 -0.4021875 13.2375 -0.8125 14.5 C-2.12524922 18.36915561 -3.55101284 22.17994294 -5 26 C-5.66 26 -6.32 26 -7 26 C-6.938125 27.051875 -6.87625 28.10375 -6.8125 29.1875 C-7.01878588 33.38197955 -7.82344172 34.53362941 -10 38 C-11.12980873 41.29782006 -12.07961954 44.63832669 -13 48 C-12.01 48 -11.02 48 -10 48 C-10 47.34 -10 46.68 -10 46 C-1.06081081 40.86824324 -1.06081081 40.86824324 5 41 C5.495 42.98 5.495 42.98 6 45 C4.02 45 2.04 45 0 45 C0 45.66 0 46.32 0 47 C-2.5614657 49.29648649 -3.47967572 50 -7 50 C-7 50.66 -7 51.32 -7 52 C-7.61875 52.0825 -8.2375 52.165 -8.875 52.25 C-11.67505419 53.23825442 -11.74113932 54.40359985 -13 57 C-13.639375 57.309375 -14.27875 57.61875 -14.9375 57.9375 C-17.70822945 59.36484548 -18.44212083 61.3583788 -20 64 C-20.99 64.33 -21.98 64.66 -23 65 C-23.433125 66.0828125 -23.433125 66.0828125 -23.875 67.1875 C-25.04925632 70.12314081 -26.62214258 72.08248493 -28.69921875 74.44140625 C-30.01472411 76.0176424 -31.09622987 77.63795953 -32.1875 79.375 C-32.785625 80.24125 -33.38375 81.1075 -34 82 C-34.66 82 -35.32 82 -36 82 C-36.18175781 83.12148437 -36.18175781 83.12148437 -36.3671875 84.265625 C-36.61855469 85.74289063 -36.61855469 85.74289063 -36.875 87.25 C-37.03742187 88.22453125 -37.19984375 89.1990625 -37.3671875 90.203125 C-37.95231191 92.78923043 -38.81022794 94.66028089 -40 97 C-40.039992 98.99960012 -40.04346799 101.00047242 -40 103 C-40.33 103.66 -40.66 104.32 -41 105 C-41 106.32 -41 107.64 -41 109 C-40.34773438 108.95359375 -39.69546875 108.9071875 -39.0234375 108.859375 C-30.98917547 108.52757657 -30.98917547 108.52757657 -27.375 110.8125 C-26.199375 111.8953125 -26.199375 111.8953125 -25 113 C-25 113.99 -25 114.98 -25 116 C-30.94 115.67 -36.88 115.34 -43 115 C-42.34 118.96 -41.68 122.92 -41 127 C-40.01 126.34 -39.02 125.68 -38 125 C-35.95703125 124.8046875 -35.95703125 124.8046875 -33.8125 124.875 C-32.554375 124.91625 -31.29625 124.9575 -30 125 C-30 126.32 -30 127.64 -30 129 C-36.625 133 -36.625 133 -40 133 C-39.67 133.99 -39.34 134.98 -39 136 C-38.96045766 138.33299825 -38.95598268 140.66708189 -39 143 C-36.69 143 -34.38 143 -32 143 C-31.773125 142.360625 -31.54625 141.72125 -31.3125 141.0625 C-30 139 -30 139 -27.375 138.25 C-26.59125 138.1675 -25.8075 138.085 -25 138 C-25.33 140.31 -25.66 142.62 -26 145 C-27.32 145.33 -28.64 145.66 -30 146 C-30 146.99 -30 147.98 -30 149 C-30.66 149.33 -31.32 149.66 -32 150 C-31.37189827 152.97017694 -31.37189827 152.97017694 -30 156 C-27.49004504 157.43923199 -27.49004504 157.43923199 -25 158 C-25 158.99 -25 159.98 -25 161 C-23.35 161 -21.7 161 -20 161 C-19.67 161.66 -19.34 162.32 -19 163 C-17.4221875 163.1546875 -17.4221875 163.1546875 -15.8125 163.3125 C-11.87684147 164.02220892 -10.70447382 164.9452616 -7.87890625 167.59375 C-3.79120882 170.65314932 1.27441548 172.16070064 6 174 C6.66 174.33 7.32 174.66 8 175 C8 175.66 8 176.32 8 177 C9.134375 177.0825 10.26875 177.165 11.4375 177.25 C15.66672884 177.76557737 19.01932144 179.20554715 22.84375 181.01953125 C25.81839247 182.37213136 28.83731164 183.19495206 32 184 C33.175625 184.350625 34.35125 184.70125 35.5625 185.0625 C40.49348882 186.29764089 45.49782376 186.41666768 50.5546875 186.72265625 C54.26096655 187.02100751 57.74665852 187.66287987 61.37109375 188.45703125 C73.17966756 190.89594917 84.10479394 191.52938364 96 190 C97.32802779 189.84033515 98.65616246 189.68155804 99.984375 189.5234375 C101.42712242 189.34928183 102.86983053 189.17480023 104.3125 189 C105.00674072 188.9170166 105.70098145 188.8340332 106.41625977 188.74853516 C109.11000731 188.41537576 111.72900082 188.07190691 114.35546875 187.375 C116 187 116 187 118 188 C118 187.34 118 186.68 118 186 C118.66386719 185.82984375 119.32773438 185.6596875 120.01171875 185.484375 C125.23422661 184.05104438 128.91395691 182.70297655 133 179 C133.66 179 134.32 179 135 179 C134.175 178.236875 133.35 177.47375 132.5 176.6875 C130 174 130 174 130 171 C131.41152344 171.12181641 131.41152344 171.12181641 132.8515625 171.24609375 C139.85354073 171.80950565 139.85354073 171.80950565 146.30078125 169.6171875 C148.92699423 166.72145862 150.04364108 165.02556538 149.875 161.0625 C149.441875 160.0415625 149.441875 160.0415625 149 159 C148.37351563 158.93941406 147.74703125 158.87882813 147.1015625 158.81640625 C146.28429687 158.73261719 145.46703125 158.64882812 144.625 158.5625 C143.40683594 158.44068359 143.40683594 158.44068359 142.1640625 158.31640625 C140 158 140 158 138 157 C138.33 155.02 138.66 153.04 139 151 C145.45892714 150.59631705 150.06108578 151.4084738 156 154 C156.79502868 150.93448401 157.44932202 147.85676844 158.0625 144.75 C158.371875 143.1825 158.68125 141.615 159 140 C153.39 140 147.78 140 142 140 C141.67 138.68 141.34 137.36 141 136 C141.99 136 142.98 136 144 136 C144 135.34 144 134.68 144 134 C149.9746409 132.00845303 155.37089013 132.52319166 161 135 C161.06058594 134.09636719 161.12117187 133.19273437 161.18359375 132.26171875 C161.26738281 131.08222656 161.35117188 129.90273437 161.4375 128.6875 C161.55931641 126.92986328 161.55931641 126.92986328 161.68359375 125.13671875 C162 122 162 122 163 119 C162.34 118.67 161.68 118.34 161 118 C162.28913487 117.32845067 163.58140204 116.66291141 164.875 116 C165.59429687 115.62875 166.31359375 115.2575 167.0546875 114.875 C169 114 169 114 171 114 C171 116.97 171 119.94 171 123 C171.66 123.33 172.32 123.66 173 124 C172.34 124 171.68 124 171 124 C171 127.3 171 130.6 171 134 C172.65 134 174.3 134 176 134 C181.3406489 135.18681087 185.38734876 137.17592781 190 140 C190 142.64 190 145.28 190 148 C185.6747634 149.44174553 181.97494523 149.98747261 177.765625 147.8828125 C175.79478262 146.64579441 173.88156131 145.36840823 172 144 C168.77595022 145.66954819 168.77595022 145.66954819 168.3125 148.625 C168.1578125 149.800625 168.1578125 149.800625 168 151 C167.34 151 166.68 151 166 151 C166.34444881 153.47266765 166.34444881 153.47266765 167 156 C167.66 156.33 168.32 156.66 169 157 C169 157.66 169 158.32 169 159 C169.66 159 170.32 159 171 159 C171 160.65 171 162.3 171 164 C171.66 164.33 172.32 164.66 173 165 C172.34 166.65 171.68 168.3 171 170 C170.34 170 169.68 170 169 170 C169 170.66 169 171.32 169 172 C166.69 171.67 164.38 171.34 162 171 C162 170.01 162 169.02 162 168 C157.60685207 169.01160848 157.60685207 169.01160848 154.625 172.125 C154.41875 172.74375 154.2125 173.3625 154 174 C154.680625 174.37125 155.36125 174.7425 156.0625 175.125 C161.38845925 178.52454846 166.24540623 182.1667426 169 188 C169 190 169 190 167.4375 191.625 C164.06680993 193.52641491 161.81180865 193.47647608 158 193 C155.75 191.1875 155.75 191.1875 154 189 C153.4225 188.46375 152.845 187.9275 152.25 187.375 C151 186 151 186 151 184 C148.69 183.67 146.38 183.34 144 183 C144 183.99 144 184.98 144 186 C142.68 186.33 141.36 186.66 140 187 C140 187.66 140 188.32 140 189 C134.375 192 134.375 192 131 192 C131 192.66 131 193.32 131 194 C126.47838972 195.62188195 121.96261478 196.68756464 117.25 197.5625 C112.4921119 198.34885872 112.4921119 198.34885872 108 200 C107.34 199.67 106.68 199.34 106 199 C106 199.66 106 200.32 106 201 C105.01 201 104.02 201 103 201 C103 200.34 103 199.68 103 199 C101.35 199.33 99.7 199.66 98 200 C98 200.66 98 201.32 98 202 C97.0925 201.835 96.185 201.67 95.25 201.5 C91.51809223 200.92586034 88.76791375 200.72269781 85.1875 202.015625 C81.52032655 203.14813445 78.81313355 203.06776113 75 202.75 C73.824375 202.66234375 72.64875 202.5746875 71.4375 202.484375 C68.0647949 202.00913019 65.19919037 201.14194534 62 200 C60.38121576 199.59901675 58.75640888 199.22105643 57.125 198.875 C55.95324219 198.62363281 55.95324219 198.62363281 54.7578125 198.3671875 C54.17773438 198.24601563 53.59765625 198.12484375 53 198 C52.67 198.66 52.34 199.32 52 200 C51.443125 199.67 50.88625 199.34 50.3125 199 C47.69715478 197.8690399 45.8193354 197.84337026 43 198 C43 197.34 43 196.68 43 196 C40.03 196 37.06 196 34 196 C34 195.34 34 194.68 34 194 C32.94941406 193.89042969 31.89882812 193.78085938 30.81640625 193.66796875 C23.18207033 192.8227387 16.20115637 191.82902572 9 189 C9 188.34 9 187.68 9 187 C8.01 187.33 7.02 187.66 6 188 C3.3125 187.0625 3.3125 187.0625 1 186 C1 185.34 1 184.68 1 184 C-0.98 183.67 -2.96 183.34 -5 183 C-5 182.34 -5 181.68 -5 181 C-6.65 181 -8.3 181 -10 181 C-10.33 180.01 -10.66 179.02 -11 178 C-11.70511719 178.06960937 -12.41023438 178.13921875 -13.13671875 178.2109375 C-16.80860053 177.94043052 -18.74944153 176.63423514 -21.8125 174.625 C-22.78832031 173.99851563 -23.76414063 173.37203125 -24.76953125 172.7265625 C-25.87361328 171.87191406 -25.87361328 171.87191406 -27 171 C-27 170.34 -27 169.68 -27 169 C-28.65 168.67 -30.3 168.34 -32 168 C-32 167.34 -32 166.68 -32 166 C-33.65 165.67 -35.3 165.34 -37 165 C-36.67 163.68 -36.34 162.36 -36 161 C-36.99 161.33 -37.98 161.66 -39 162 C-39.99 161.67 -40.98 161.34 -42 161 C-42.99 161 -43.98 161 -45 161 C-45.33 161.66 -45.66 162.32 -46 163 C-46.66 162.67 -47.32 162.34 -48 162 C-48 161.34 -48 160.68 -48 160 C-48.99 160 -49.98 160 -51 160 C-51 159.01 -51 158.02 -51 157 C-50.34 157 -49.68 157 -49 157 C-49 156.34 -49 155.68 -49 155 C-49.66 155 -50.32 155 -51 155 C-51 154.34 -51 153.68 -51 153 C-50.34 153 -49.68 153 -49 153 C-48.67 152.01 -48.34 151.02 -48 150 C-47.34 149.67 -46.68 149.34 -46 149 C-46.495 148.608125 -46.99 148.21625 -47.5 147.8125 C-49.45593143 145.44908285 -49.24207973 143.98564997 -49 141 C-51.21674869 141.47501758 -53.03857099 142.0198699 -55.0625 143.0625 C-57 144 -57 144 -60 144 C-60 143.34 -60 142.68 -60 142 C-60.99 141.67 -61.98 141.34 -63 141 C-62.9375 138.75 -62.9375 138.75 -62 136 C-58.9301813 133.52994022 -56.00503984 132 -52 132 C-52 130.68 -52 129.36 -52 128 C-52.66 127.67 -53.32 127.34 -54 127 C-54 126.01 -54 125.02 -54 124 C-53.34 124 -52.68 124 -52 124 C-52.66 122.35 -53.32 120.7 -54 119 C-57.26109651 119.47723364 -60.28282856 120.08741974 -63.4375 121.0625 C-67.11191221 122.02945058 -70.2190629 122.15432396 -74 122 C-74.33 121.01 -74.66 120.02 -75 119 C-75.66 119 -76.32 119 -77 119 C-76.9375 116.1875 -76.9375 116.1875 -76 113 C-70.98043999 109.83549478 -66.10960842 109.57168539 -60.2578125 109.30859375 C-59.14019531 109.15583984 -59.14019531 109.15583984 -58 109 C-57.67 108.34 -57.34 107.68 -57 107 C-57 107.66 -57 108.32 -57 109 C-54.525 108.505 -54.525 108.505 -52 108 C-52.061875 106.700625 -52.12375 105.40125 -52.1875 104.0625 C-52.21187142 98.94450211 -50.87433898 94.71931779 -49 90 C-48.34 90 -47.68 90 -47 90 C-46.67 88.02 -46.34 86.04 -46 84 C-45.34 84 -44.68 84 -44 84 C-43.855625 83.0925 -43.71125 82.185 -43.5625 81.25 C-43.13590527 78.78523044 -42.64925779 76.41152893 -42 74 C-41.01 74 -40.02 74 -39 74 C-38.855625 73.401875 -38.71125 72.80375 -38.5625 72.1875 C-37.27345455 67.17454545 -37.27345455 67.17454545 -34.0625 65.125 C-30.73282494 62.81461322 -30.29192531 61.67701819 -29 58 C-28.01 57.67 -27.02 57.34 -26 57 C-24.15008886 54.21696962 -24.15008886 54.21696962 -23 51 C-23.17789063 50.40832031 -23.35578125 49.81664062 -23.5390625 49.20703125 C-24.22007997 45.94622725 -23.16628164 43.63102617 -22.125 40.5 C-20.98087452 37.01161742 -19.8608163 33.56847485 -19 30 C-18.505 28.515 -18.505 28.515 -18 27 C-17.34 27 -16.68 27 -16 27 C-15.896875 25.96875 -15.79375 24.9375 -15.6875 23.875 C-15.00413494 20.02330603 -13.85855738 17.40735519 -12 14 C-11.67 13.01 -11.34 12.02 -11 11 C-10.01 11 -9.02 11 -8 11 C-8 10.34 -8 9.68 -8 9 C-7.34 9 -6.68 9 -6 9 C-5.938125 8.21625 -5.87625 7.4325 -5.8125 6.625 C-5.544375 5.75875 -5.27625 4.8925 -5 4 C-2.4375 2.6875 -2.4375 2.6875 0 2 C0 1.34 0 0.68 0 0 Z M42 30 C43 32 43 32 43 32 Z M159 166 C160 168 160 168 160 168 Z " fill="#ED84A0" transform="translate(92,43)"/>
<path d="M0 0 C3.63 0 7.26 0 11 0 C11 0.66 11 1.32 11 2 C12.32 2 13.64 2 15 2 C20 7.22727273 20 7.22727273 20 10 C24.54416636 9.46539219 27.25568135 7.52334518 31 5 C31.99 5 32.98 5 34 5 C34.33 4.34 34.66 3.68 35 3 C35.66 2.67 36.32 2.34 37 2 C37 2.66 37 3.32 37 4 C38.051875 4.0825 39.10375 4.165 40.1875 4.25 C44.35084439 5.06901857 46.1090428 5.93898649 49 9 C49.6875 11.6875 49.6875 11.6875 50 14 C50.66 14.33 51.32 14.66 52 15 C52 16.32 52 17.64 52 19 C51.01 19.495 51.01 19.495 50 20 C49.28293018 21.98248715 48.61709587 23.98415349 48 26 C47.67 26.66 47.34 27.32 47 28 C46.34 28 45.68 28 45 28 C45 29.32 45 30.64 45 32 C44.01 32.66 43.02 33.32 42 34 C40.79549696 36.55183404 40.79549696 36.55183404 40 39 C39.34 39 38.68 39 38 39 C38 39.66 38 40.32 38 41 C37.01 41.33 36.02 41.66 35 42 C34.505 42.99 34.505 42.99 34 44 C33.34 44 32.68 44 32 44 C32 44.66 32 45.32 32 46 C30.35 46.66 28.7 47.32 27 48 C27 48.66 27 49.32 27 50 C22.66381853 52.68843251 19.22314481 54.76258433 14 55 C13.01 54.34 12.02 53.68 11 53 C10.375 49.625 10.375 49.625 10 46 C9.69096017 44.66082739 9.37057089 43.32346746 9 42 C7.515 42.495 7.515 42.495 6 43 C6 42.34 6 41.68 6 41 C5.2575 40.7525 4.515 40.505 3.75 40.25 C-1.5052698 37.861241 -3.7773137 34.2233128 -6 29 C-6 28.01 -6 27.02 -6 26 C-6.66 26 -7.32 26 -8 26 C-8 19.73 -8 13.46 -8 7 C-7.34 7 -6.68 7 -6 7 C-6 6.01 -6 5.02 -6 4 C-4.02 3.34 -2.04 2.68 0 2 C0 1.34 0 0.68 0 0 Z " fill="#ED829E" transform="translate(8,74)"/>
<path d="M0 0 C3.4375 0.875 3.4375 0.875 6.4375 2.875 C6.4375 3.535 6.4375 4.195 6.4375 4.875 C8.9125 5.37 8.9125 5.37 11.4375 5.875 C14.02065518 13.51683408 15.38111719 19.85757909 13.4375 27.875 C14.0975 27.875 14.7575 27.875 15.4375 27.875 C15.4375 29.195 15.4375 30.515 15.4375 31.875 C13.4575 32.37 13.4575 32.37 11.4375 32.875 C11.4375 33.535 11.4375 34.195 11.4375 34.875 C8.4375 33.875 8.4375 33.875 6.75 30.9375 C5.4375 27.875 5.4375 27.875 5.4375 25.875 C4.1175 25.875 2.7975 25.875 1.4375 25.875 C1.4375 25.215 1.4375 24.555 1.4375 23.875 C-4.9975 24.37 -4.9975 24.37 -11.5625 24.875 C-11.8925 25.865 -12.2225 26.855 -12.5625 27.875 C-13.2225 28.205 -13.8825 28.535 -14.5625 28.875 C-14.7390235 33.99418146 -14.7637966 38.12483365 -12.5625 42.875 C-11.0775 43.37 -11.0775 43.37 -9.5625 43.875 C-9.5625 44.535 -9.5625 45.195 -9.5625 45.875 C-8.0775 46.37 -8.0775 46.37 -6.5625 46.875 C-4.875 48.4375 -4.875 48.4375 -3.5625 49.875 C-3.8925 50.865 -4.2225 51.855 -4.5625 52.875 C-10.96348283 54.13233591 -14.67001337 53.51420687 -20.5625 50.875 C-21.5525 50.545 -22.5425 50.215 -23.5625 49.875 C-25.75 47.9375 -25.75 47.9375 -27.5625 45.875 C-27.5625 45.215 -27.5625 44.555 -27.5625 43.875 C-28.8825 43.215 -30.2025 42.555 -31.5625 41.875 C-31.52125 41.09125 -31.48 40.3075 -31.4375 39.5 C-31.27521266 36.71383881 -31.27521266 36.71383881 -33.5625 34.875 C-32.5725 31.905 -31.5825 28.935 -30.5625 25.875 C-29.9025 25.875 -29.2425 25.875 -28.5625 25.875 C-28.48 25.359375 -28.3975 24.84375 -28.3125 24.3125 C-27.21902317 20.75870031 -25.57613024 18.01389419 -23.5625 14.875 C-22.5725 14.545 -21.5825 14.215 -20.5625 13.875 C-19.15053165 12.33569465 -19.15053165 12.33569465 -17.8125 10.5 C-14.83650155 6.86513622 -11.95499398 5.5831921 -7.5625 3.875 C-6.9025 3.1325 -6.2425 2.39 -5.5625 1.625 C-3.5625 -0.125 -3.5625 -0.125 0 0 Z " fill="#FEA3BB" transform="translate(199.5625,70.125)"/>
<path d="M0 0 C0 0.66 0 1.32 0 2 C0.763125 2.144375 1.52625 2.28875 2.3125 2.4375 C5.87780155 4.51034974 6.63806294 6.39306722 7.75390625 10.2890625 C8.23672833 15.60776928 6.32799492 20.28890969 4 25 C1.375 28 1.375 28 -1 30 C-1.28875 30.70125 -1.5775 31.4025 -1.875 32.125 C-4.08264008 35.80440014 -8.49933368 36.61280885 -12.4375 37.62890625 C-17.3771539 38.70569056 -21.95166254 39.21949293 -27 39 C-27.33 39.66 -27.66 40.32 -28 41 C-28 40.34 -28 39.68 -28 39 C-28.721875 38.938125 -29.44375 38.87625 -30.1875 38.8125 C-34.00234681 37.71043314 -35.52230691 36.0803752 -38 33 C-38.73260159 30.68652128 -39.411438 28.354248 -40 26 C-40.66 25.67 -41.32 25.34 -42 25 C-41.25233645 16.02803738 -41.25233645 16.02803738 -38 13 C-33.53795984 10.1605199 -30.2498306 9.53126513 -25 10 C-21.5625 11 -21.5625 11 -19 12 C-19.33 13.65 -19.66 15.3 -20 17 C-22.31 17.33 -24.62 17.66 -27 18 C-27.66 16.68 -28.32 15.36 -29 14 C-31.86724686 14.57344937 -32.8614515 14.8614515 -35 17 C-35.24212873 18.98128508 -35.24212873 18.98128508 -35.125 21.125 C-35.08375 22.40375 -35.0425 23.6825 -35 25 C-29.59707606 25.11026375 -24.30158193 25.19015105 -19 24 C-18.34 23.01 -17.68 22.02 -17 21 C-15.68 21 -14.36 21 -13 21 C-13 20.01 -13 19.02 -13 18 C-12.34 18 -11.68 18 -11 18 C-11 17.34 -11 16.68 -11 16 C-10.34 16 -9.68 16 -9 16 C-9.309375 14.9275 -9.61875 13.855 -9.9375 12.75 C-10.66623492 10.17799441 -11.35164156 7.59343376 -12 5 C-17.28 5 -22.56 5 -28 5 C-28 4.34 -28 3.68 -28 3 C-19.65233021 -1.76722347 -9.21485359 -1.36653139 0 0 Z " fill="#FEA3BA" transform="translate(260,119)"/>
<path d="M0 0 C2.54355097 1.59374396 2.92060665 2.72086969 3.7421875 5.609375 C4.07048508 9.92698564 3.65727855 13.9641208 3.125 18.25 C2.98771484 19.47203125 2.98771484 19.47203125 2.84765625 20.71875 C2.14289096 26.71421807 2.14289096 26.71421807 1 29 C-1.546875 29.59765625 -1.546875 29.59765625 -4.75 30.0625 C-9.28223211 30.73249599 -9.28223211 30.73249599 -13.7734375 31.625 C-16 32 -16 32 -17.875 30.9375 C-19 29 -19 29 -18.4375 26.0625 C-17.67880825 23.01558771 -17.67880825 23.01558771 -19.3125 20.75 C-23.34404049 18.12481084 -27.26197001 17.74811 -32 17 C-32 13.37 -32 9.74 -32 6 C-21.46671326 1.66807302 -11.54608884 -1.95465284 0 0 Z " fill="#FBF7F7" transform="translate(253,83)"/>
<path d="M0 0 C0 0.66 0 1.32 0 2 C0.99 2.33 1.98 2.66 3 3 C3.73046875 4.84765625 3.73046875 4.84765625 4.1875 7.0625 C4.34605469 7.79597656 4.50460938 8.52945313 4.66796875 9.28515625 C4.77753906 9.85105469 4.88710938 10.41695312 5 11 C4.01 11.495 4.01 11.495 3 12 C2.731875 12.86625 2.46375 13.7325 2.1875 14.625 C0.54188044 19.30202402 -2.07415785 23.09299249 -5.59765625 26.58203125 C-7.11341335 27.96768743 -7.11341335 27.96768743 -8 30 C-9.97888961 30.72693904 -11.97954558 31.39816251 -14 32 C-14.33773438 31.50628906 -14.67546875 31.01257813 -15.0234375 30.50390625 C-15.46945313 29.86324219 -15.91546875 29.22257812 -16.375 28.5625 C-17.03628906 27.60537109 -17.03628906 27.60537109 -17.7109375 26.62890625 C-18.92160853 24.86259072 -18.92160853 24.86259072 -21 24 C-21.12375 23.21625 -21.2475 22.4325 -21.375 21.625 C-21.72989296 18.86314038 -21.72989296 18.86314038 -24 17.5625 C-26 16 -26 16 -27 13.375 C-27 8.63352883 -25.15126058 5.15479511 -23 1 C-19.86688731 0.81569925 -17.95837176 1.01647785 -15 2.1875 C-12.00096834 3.37644273 -12.00096834 3.37644273 -9.5625 1.625 C-6.24383602 -0.47951862 -3.85310565 -0.22665327 0 0 Z " fill="#EC819D" transform="translate(43,36)"/>
<path d="M0 0 C2.5 1.375 2.5 1.375 4 3 C4 3.66 4 4.32 4 5 C4.66 5 5.32 5 6 5 C8 11.75 8 11.75 8 14 C8.495 14.99 8.495 14.99 9 16 C8.66666667 18.33333333 8.33333333 20.66666667 8 23 C7.91421937 26.00232216 7.93872135 28.99734621 8 32 C7.34 32 6.68 32 6 32 C5.67 34.64 5.34 37.28 5 40 C2.03 39.34 -0.94 38.68 -4 38 C-3.93417725 37.36497559 -3.86835449 36.72995117 -3.80053711 36.07568359 C-3.50466853 33.17622439 -3.22098533 30.27569503 -2.9375 27.375 C-2.83373047 26.37597656 -2.72996094 25.37695312 -2.62304688 24.34765625 C-2.14435931 19.36270299 -1.79758748 14.92736879 -3 10 C-13.40471199 9.43315734 -21.51058042 9.84200574 -31.2421875 13.90625 C-34 15 -34 15 -37 15 C-37.33 15.66 -37.66 16.32 -38 17 C-37.125 10.25 -37.125 10.25 -36 8 C-29.44895083 3.63263389 -20.84499811 1.29343778 -13 2.4375 C-12.34 2.623125 -11.68 2.80875 -11 3 C-11 2.34 -11 1.68 -11 1 C-7.30072399 -0.233092 -3.84996167 -0.4492913 0 0 Z " fill="#EC849F" transform="translate(258,74)"/>
<path d="M0 0 C0.02708567 1.60407328 0.04643483 3.2082785 0.0625 4.8125 C0.07410156 5.70582031 0.08570313 6.59914063 0.09765625 7.51953125 C0 10 0 10 -1 13 C-2.33333333 13.66666667 -3.66666667 14.33333333 -5 15 C-5.33 15.99 -5.66 16.98 -6 18 C-9.55651363 20.42883858 -12.09965275 21.23493206 -16.3125 20.75 C-20 20 -20 20 -21 19 C-21.04063832 17.33382885 -21.042721 15.66611905 -21 14 C-20.34 14 -19.68 14 -19 14 C-19.12375 13.319375 -19.2475 12.63875 -19.375 11.9375 C-18.80476125 7.47062978 -16.23466202 4.99534335 -13 2 C-8.80616097 -0.53837625 -4.77172785 -0.16175349 0 0 Z " fill="#FEA3BB" transform="translate(227,108)"/>
<path d="M0 0 C3.49372188 1.53503686 7.27063572 3.27063572 10 6 C10.3125 8.875 10.3125 8.875 10 12 C7.03354479 14.9389243 4.73293512 15.43174659 0.625 15.4375 C-4.35356712 15.30473821 -7.17348242 14.34820288 -11 11 C-11.639375 10.525625 -12.27875 10.05125 -12.9375 9.5625 C-14 8 -14 8 -14 5.5 C-13 3 -13 3 -10.9375 1.1875 C-7.15738053 -0.3406334 -3.97243607 -0.78319788 0 0 Z " fill="#F7D781" transform="translate(142,181)"/>
<path d="M0 0 C2.67124989 1.31219293 5.04296333 2.7395929 7 5 C7 6.32 7 7.64 7 9 C7.66 9 8.32 9 9 9 C8.75 11.375 8.75 11.375 8 14 C6.0625 15.375 6.0625 15.375 4 16 C3.34 15.67 2.68 15.34 2 15 C1.40644386 12.35139573 1.25790731 9.70802678 1 7 C-0.918125 6.9690625 -0.918125 6.9690625 -2.875 6.9375 C-3.59429687 6.92589844 -4.31359375 6.91429687 -5.0546875 6.90234375 C-7.08185404 6.87350758 -7.08185404 6.87350758 -9 8 C-9 9.65 -9 11.3 -9 13 C-10.98 13 -12.96 13 -15 13 C-15.36571952 6.53895509 -15.36571952 6.53895509 -13.8125 4.25 C-13.214375 3.8375 -12.61625 3.425 -12 3 C-11.2575 2.443125 -10.515 1.88625 -9.75 1.3125 C-6.13594269 -0.41239099 -3.97290057 -0.54798628 0 0 Z " fill="#EE8BA5" transform="translate(94,155)"/>
<path d="M0 0 C2.5625 1.875 2.5625 1.875 4 4 C4 4.66 4 5.32 4 6 C4.99 6.33 5.98 6.66 7 7 C7 9.31 7 11.62 7 14 C5 15 5 15 3 14.375 C0.42541976 12.60497608 0.03674334 10.88807075 -1 8 C-3.40545638 6.79727181 -4.94996953 6.89928528 -7.625 6.9375 C-8.44226563 6.94652344 -9.25953125 6.95554688 -10.1015625 6.96484375 C-10.72804687 6.97644531 -11.35453125 6.98804688 -12 7 C-12.33 7.99 -12.66 8.98 -13 10 C-14.9375 9.6875 -14.9375 9.6875 -17 9 C-17.33 8.01 -17.66 7.02 -18 6 C-17.67 5.34 -17.34 4.68 -17 4 C-16.34 4 -15.68 4 -15 4 C-15 3.34 -15 2.68 -15 2 C-10.04018239 -0.03479697 -5.30629792 -0.84578563 0 0 Z " fill="#EE8BA5" transform="translate(209,181)"/>
<path d="M0 0 C3.49372188 1.53503686 7.27063572 3.27063572 10 6 C10.3125 8.875 10.3125 8.875 10 12 C7.03354479 14.9389243 4.73293512 15.43174659 0.625 15.4375 C-4.35356712 15.30473821 -7.17348242 14.34820288 -11 11 C-11.639375 10.525625 -12.27875 10.05125 -12.9375 9.5625 C-14 8 -14 8 -14 5.5 C-13 3 -13 3 -10.9375 1.1875 C-7.15738053 -0.3406334 -3.97243607 -0.78319788 0 0 Z M-11 4 C-10.77063276 7.44050866 -10.60838078 9.39161922 -8.125 11.875 C-3.508096 13.53708544 1.14038361 13.60256113 6 13 C8.26759225 11.19124804 8.26759225 11.19124804 8.0625 8.625 C6.7688245 5.42886054 5.0828934 4.27082406 2.04296875 2.72265625 C-2.67652278 1.05323764 -6.77461702 1.18307801 -11 4 Z " fill="#EF95A0" transform="translate(142,181)"/>
<path d="M0 0 C2.98704569 0.49784095 4.39324263 1.26216175 7 3 C7.33 3.99 7.66 4.98 8 6 C8.66 6.33 9.32 6.66 10 7 C10 8.32 10 9.64 10 11 C7.23723823 10.47731534 4.6739124 9.89130413 2 9 C2 8.34 2 7.68 2 7 C1.01 7 0.02 7 -1 7 C-1.04254356 5.00045254 -1.04080783 2.99958364 -1 1 C-0.67 0.67 -0.34 0.34 0 0 Z " fill="#FC9EB7" transform="translate(194,101)"/>
<path d="M0 0 C0.33 0 0.66 0 1 0 C1.25 2.8125 1.25 2.8125 1 6 C-1.19904613 8.20934611 -2.59411436 8.93991243 -5.69140625 9.3984375 C-6.63886719 9.39070312 -7.58632812 9.38296875 -8.5625 9.375 C-9.51253906 9.38273438 -10.46257812 9.39046875 -11.44140625 9.3984375 C-14.34090496 8.94691251 -15.2179046 8.26812142 -17 6 C-15.51886719 6.03480469 -15.51886719 6.03480469 -14.0078125 6.0703125 C-12.08582031 6.09738281 -12.08582031 6.09738281 -10.125 6.125 C-8.84882813 6.14820313 -7.57265625 6.17140625 -6.2578125 6.1953125 C-2.91406662 6.35641524 -2.91406662 6.35641524 -1 4 C-0.3574765 1.93125966 -0.3574765 1.93125966 0 0 Z " fill="#EF9AAD" transform="translate(151,187)"/>
<path d="M0 0 C0 0.99 0 1.98 0 3 C-3.63 3.33 -7.26 3.66 -11 4 C-11 3.34 -11 2.68 -11 2 C-7.36576791 -0.32590854 -4.22911669 -0.16265833 0 0 Z " fill="#FB98B1" transform="translate(243,120)"/>
<path d="M0 0 C-0.928125 0.3403125 -0.928125 0.3403125 -1.875 0.6875 C-4.61410209 2.37929835 -5.05024472 3.99244161 -6 7 C-6.66 6.01 -7.32 5.02 -8 4 C-7.67 3.01 -7.34 2.02 -7 1 C-4.53721199 -0.231394 -2.7204945 -0.07159196 0 0 Z M-10 7 C-9.01 7.33 -8.02 7.66 -7 8 C-7.99 8.33 -8.98 8.66 -10 9 C-10 8.34 -10 7.68 -10 7 Z " fill="#F9DDE4" transform="translate(92,161)"/>
<path d="M0 0 C0.66 1.32 1.32 2.64 2 4 C-0.375 4.1875 -0.375 4.1875 -3 4 C-3.66 3.01 -4.32 2.02 -5 1 C-2 0 -2 0 0 0 Z " fill="#EC8CA6" transform="translate(199,59)"/>
<path d="" fill="#C2728B" transform="translate(0,0)"/>
<path d="" fill="#E787A4" transform="translate(0,0)"/>
<path d="" fill="#E6819C" transform="translate(0,0)"/>
<path d="" fill="#C06B82" transform="translate(0,0)"/>
<path d="" fill="#E17D98" transform="translate(0,0)"/>
<path d="" fill="#885464" transform="translate(0,0)"/>
<path d="" fill="#AA667E" transform="translate(0,0)"/>
<path d="" fill="#D47893" transform="translate(0,0)"/>
<path d="" fill="#E988A4" transform="translate(0,0)"/>
<path d="" fill="#EF83A0" transform="translate(0,0)"/>
<path d="" fill="#F492B0" transform="translate(0,0)"/>
</svg>
